<svg xmlns="http://www.w3.org/2000/svg" viewBox="0 0 536.42 129.04"><defs><style>.a{fill:#231f20;}</style></defs><title>kisko</title><path class="a" d="M126.47,64A64.52,64.52,0,1,0,191,128.48,64.52,64.52,0,0,0,126.47,64Zm35.12,50.89a3.23,3.23,0,0,1-3.22,3.22h-6.67a3.23,3.23,0,0,0-3.22,3.22v14.32a3.23,3.23,0,0,0,3.22,3.22h6.63a3.23,3.23,0,0,1,3.22,3.22V156a3.23,3.23,0,0,1-3.22,3.22H94.57A3.23,3.23,0,0,1,91.35,156V142.05a3.23,3.23,0,0,1,3.22-3.22h6.67a3.23,3.23,0,0,0,3.22-3.22V121.29a3.23,3.23,0,0,0-3.22-3.22H94.61a3.23,3.23,0,0,1-3.22-3.22V100.49a3.23,3.23,0,0,1,3.22-3.22h63.75a3.23,3.23,0,0,1,3.22,3.22v14.35Z" transform="translate(-61.94 -63.95)"/><path class="a" d="M398.06,120.83c-4-1.46-8.22-1.94-10.6-2.89-2.09-.84-3.49-3.69-2.76-5.09a0.48,0.48,0,0,1,0-.11,5,5,0,0,1,1.09-1.45l0.06,0,0,0a1.51,1.51,0,0,1,.31-0.21h0a1.38,1.38,0,0,1,.28-0.13,13.3,13.3,0,0,1,3.88-.45c5.08,0,14,2.94,15.64,3.58s2.84,1.14,3.62,1.49a3.38,3.38,0,0,0,3.81-.26,3.78,3.78,0,0,0,1.36-3.62l0-15.21a3.63,3.63,0,0,0-.9-1.94,3.47,3.47,0,0,0-1.68-1.16c-3.87-1.29-18.43-3.17-23.68-3.17q-14.47,0-22.61,6.2a20,20,0,0,0-8.14,17.83,24.24,24.24,0,0,0,9.46,17.36c8.49,5.65,19.39,6.74,21.8,7.59,5.42,1.93,4,4.34,4,5.46a1.64,1.64,0,0,1-1.42,1.49,13.31,13.31,0,0,1-3.88.45A40.27,40.27,0,0,1,373,143.68q-3.88-1.42-6.33-2.38c-1.64-.65-2.85-1.14-3.62-1.49a3.39,3.39,0,0,0-3.81.26,3.78,3.78,0,0,0-1.35,3.62l-0.06,16a3.62,3.62,0,0,0,.9,1.94,3.46,3.46,0,0,0,1.68,1.16c3.87,1.29,9.85,2.22,14.46,2.95a94.54,94.54,0,0,0,14.8,1.1q14.46,0,22.61-6.2t8.14-17.83C420.41,126.49,398.06,120.83,398.06,120.83Z" transform="translate(-61.94 -63.95)"/><path class="a" d="M340.32,92.82h-20.8A2.81,2.81,0,0,0,317.2,94a4.3,4.3,0,0,0-.91,2.72v31.72h0v31.85a4.29,4.29,0,0,0,.91,2.72,2.81,2.81,0,0,0,2.33,1.16h20.8a2.71,2.71,0,0,0,2.19-1.16,4.31,4.31,0,0,0,.9-2.72V128.54h0V96.69a4.33,4.33,0,0,0-.9-2.72A2.71,2.71,0,0,0,340.32,92.82Z" transform="translate(-61.94 -63.95)"/><path class="a" d="M511.75,94.93a3.65,3.65,0,0,0-3.68-2.19H484.29a3.83,3.83,0,0,0-1.49.45,4.83,4.83,0,0,0-1.35.84L463.3,118.81V96.69a4,4,0,0,0-3.88-3.88H437.07A3.94,3.94,0,0,0,434.28,94a3.64,3.64,0,0,0-1.23,2.72v31.72h0v31.92a3.64,3.64,0,0,0,1.23,2.72,3.94,3.94,0,0,0,2.78,1.16h22.35a4,4,0,0,0,3.88-3.88v-22.2l18.15,24.78a4.84,4.84,0,0,0,1.35.84,3.8,3.8,0,0,0,1.49.45h23.77a3.65,3.65,0,0,0,3.68-2.19,3.77,3.77,0,0,0-.84-4.27l-20.63-29.27L510.91,99.2A3.77,3.77,0,0,0,511.75,94.93Z" transform="translate(-61.94 -63.95)"/><path class="a" d="M304.16,95a3.65,3.65,0,0,0-3.68-2.2H276.7a3.88,3.88,0,0,0-1.49.45,4.87,4.87,0,0,0-1.35.84l-18.14,24.78V96.69a4,4,0,0,0-3.88-3.87H229.47A3.94,3.94,0,0,0,226.69,94a3.62,3.62,0,0,0-1.23,2.72v31.72h0V160.2a3.62,3.62,0,0,0,1.23,2.71,3.93,3.93,0,0,0,2.78,1.16h22.35a4,4,0,0,0,3.88-3.87V138.06l18.14,24.78a4.83,4.83,0,0,0,1.35.84,3.89,3.89,0,0,0,1.49.45h23.77a3.65,3.65,0,0,0,3.68-2.2,3.78,3.78,0,0,0-.84-4.26l-20.58-29.19,20.59-29.21A3.78,3.78,0,0,0,304.16,95Z" transform="translate(-61.94 -63.95)"/><path class="a" d="M598.37,128.54q-0.16-17.6-11.22-27.93t-30-10.34q-18.74,0-29.85,10.34t-11.21,27.8h0q0.16,17.6,11.22,27.93t29.85,10.34q18.86,0,30-10.34t11.22-27.8h0Zm-41.21,14.75q-6.46,0-10.08-4.07c-2.3-2.59-3.47-6.17-3.57-10.69,0.08-4.58,1.26-8.19,3.58-10.81s5.77-4.07,10.08-4.07,7.79,1.35,10.2,4.07,3.47,6.17,3.58,10.69c-0.09,4.58-1.26,8.19-3.59,10.81S561.55,143.29,557.16,143.29Z" transform="translate(-61.94 -63.95)"/></svg>