<svg viewBox="0 0 469 123" preserveAspectRatio="xMinYMin" xmlns="http://www.w3.org/2000/svg" fill-rule="evenodd" clip-rule="evenodd" stroke-miterlimit="1.414" class="logo"><path d="M35.658 32.69c4.924 0 8.916-3.993 8.916-8.917 0-4.924-3.992-8.916-8.916-8.916s-8.916 3.992-8.916 8.916 3.992 8.916 8.916 8.916" fill="#f44336" fill-rule="nonzero"/><path d="M147.832 73.957c4.924 0 8.916-3.992 8.916-8.916 0-4.922-3.992-8.914-8.916-8.914s-8.916 3.992-8.916 8.916c0 4.925 3.992 8.917 8.916 8.917" fill="#4caf50" fill-rule="nonzero"/><path d="M260.907 32.69c4.924 0 8.916-3.993 8.916-8.917 0-4.924-3.992-8.916-8.916-8.916s-8.916 3.992-8.916 8.916 3.994 8.916 8.918 8.916" fill="#2196f3" fill-rule="nonzero"/><path d="M241.436 52.49c0-3.98-1.245-7.213-3.73-9.7-2.49-2.487-5.723-3.732-9.7-3.732h-56.86c-1.792 0-3.36.648-4.702 1.94-1.343 1.294-2.015 2.835-2.015 4.626v68.8c0 1.887.644 3.454 1.94 4.7 1.29 1.242 2.883 1.865 4.774 1.865 1.89 0 3.482-.625 4.776-1.867 1.293-1.246 1.94-2.813 1.94-4.7V93.23c0-1.193.796-1.79 2.39-1.79h47.158c3.978 0 7.312-1.292 10-3.88 2.685-2.586 4.028-5.87 4.028-9.85V52.49zm-15.968 25.52H177.86V54.13c0-1.29.647-1.94 1.94-1.94h45.817c1.59 0 2.388.65 2.388 1.94v21.49c0 1.593-.847 2.39-2.537 2.39m41.934-32.535c0-1.89-.65-3.482-1.94-4.776-1.295-1.294-2.887-1.94-4.776-1.94-1.89 0-3.458.646-4.7 1.94-1.246 1.292-1.866 2.885-1.866 4.774v39.548c0 1.89.645 3.458 1.94 4.7 1.29 1.246 2.884 1.866 4.775 1.866 1.89 0 3.456-.62 4.7-1.866 1.244-1.243 1.867-2.81 1.867-4.7v-39.55zm82.824 33.728l-22.385-14.03 22.387-14.027c2.188-1.292 3.284-3.083 3.284-5.373 0-1.79-.67-3.432-2.014-4.925-1.343-1.492-2.91-2.238-4.7-2.238-1.295 0-2.49.4-3.583 1.194l-27.907 17.46-27.907-17.46c-1.195-.795-2.39-1.194-3.583-1.194-1.79 0-3.358.746-4.7 2.238-1.344 1.493-2.016 3.134-2.016 4.925 0 2.29 1.095 4.08 3.284 5.373l22.386 14.028-22.387 14.03c-2.19 1.393-3.283 3.233-3.283 5.52 0 1.79.646 3.384 1.94 4.776 1.292 1.394 2.836 2.09 4.627 2.09 1.29 0 2.537-.348 3.73-1.045l27.908-17.46 27.907 17.46c1.194.697 2.437 1.044 3.73 1.044 1.792 0 3.333-.697 4.628-2.09 1.29-1.393 1.94-2.986 1.94-4.777 0-2.287-1.096-4.127-3.284-5.52m85.662-26.715c0-4.08-1.394-7.337-4.178-9.776-2.787-2.437-6.22-3.656-10.298-3.656h-43.875c-9.552 0-14.327 4.428-14.327 13.282v25.37c0 3.682 1.366 6.89 4.104 9.626 2.735 2.738 5.944 4.104 9.626 4.104h48.95c1.888 0 3.48-.62 4.775-1.865 1.292-1.243 1.94-2.81 1.94-4.7 0-1.89-.648-3.483-1.94-4.777-1.294-1.292-2.887-1.94-4.776-1.94h-47.907c-.995 0-1.492-.448-1.492-1.343V72.04h44.324c4.08 0 7.51-.896 10.298-2.687 3.183-1.99 4.775-4.925 4.775-8.805v-8.06zm-13.282 5.52c0 1.195-.846 1.792-2.537 1.792h-44.027v-4.925c0-1.59.746-2.388 2.24-2.388h41.934c1.59 0 2.388.498 2.388 1.49v4.03zm42.98 28.505c-2.09-1.392-3.234-2.238-3.432-2.537-.2-.298-.3-.546-.3-.746V8.778c0-1.89-.647-3.482-1.94-4.776-1.293-1.292-2.886-1.94-4.774-1.94-1.892 0-3.46.648-4.7 1.94-1.247 1.294-1.867 2.887-1.867 4.776v74.305c0 3.782 1.094 6.99 3.283 9.625 2.188 2.635 5.074 3.955 8.656 3.955 4.377 0 6.567-1.842 6.567-5.522 0-2.285-.5-3.826-1.495-4.624" fill="#364851" fill-rule="nonzero"/><path d="M241.436 52.49c0-3.98-1.245-7.213-3.73-9.7-2.49-2.487-5.723-3.732-9.7-3.732h-56.86c-1.792 0-3.36.648-4.702 1.94-1.343 1.294-2.015 2.835-2.015 4.626v68.8c0 1.887.644 3.454 1.94 4.7 1.29 1.242 2.883 1.865 4.774 1.865 1.89 0 3.482-.625 4.776-1.867 1.293-1.246 1.94-2.813 1.94-4.7V93.23c0-1.193.796-1.79 2.39-1.79h47.158c3.978 0 7.312-1.292 10-3.88 2.685-2.586 4.028-5.87 4.028-9.85V52.49zm-15.968 25.52H177.86V54.13c0-1.29.647-1.94 1.94-1.94h45.817c1.59 0 2.388.65 2.388 1.94v21.49c0 1.593-.847 2.39-2.537 2.39zm41.934-32.535c0-1.89-.65-3.482-1.94-4.776-1.295-1.294-2.887-1.94-4.776-1.94-1.89 0-3.458.646-4.7 1.94-1.246 1.292-1.866 2.885-1.866 4.774v39.548c0 1.89.645 3.458 1.94 4.7 1.29 1.246 2.884 1.866 4.775 1.866 1.89 0 3.456-.62 4.7-1.866 1.244-1.243 1.867-2.81 1.867-4.7v-39.55zm82.824 33.728l-22.385-14.03 22.387-14.027c2.188-1.292 3.284-3.083 3.284-5.373 0-1.79-.67-3.432-2.014-4.925-1.343-1.492-2.91-2.238-4.7-2.238-1.295 0-2.49.4-3.583 1.194l-27.907 17.46-27.907-17.46c-1.195-.795-2.39-1.194-3.583-1.194-1.79 0-3.358.746-4.7 2.238-1.344 1.493-2.016 3.134-2.016 4.925 0 2.29 1.095 4.08 3.284 5.373l22.386 14.028-22.387 14.03c-2.19 1.393-3.283 3.233-3.283 5.52 0 1.79.646 3.384 1.94 4.776 1.292 1.394 2.836 2.09 4.627 2.09 1.29 0 2.537-.348 3.73-1.045l27.908-17.46 27.907 17.46c1.194.697 2.437 1.044 3.73 1.044 1.792 0 3.333-.697 4.628-2.09 1.29-1.393 1.94-2.986 1.94-4.777 0-2.287-1.096-4.127-3.284-5.52zm85.662-26.714c0-4.08-1.394-7.338-4.178-9.777-2.787-2.437-6.22-3.656-10.298-3.656h-43.875c-9.552 0-14.327 4.428-14.327 13.282v25.37c0 3.68 1.366 6.89 4.104 9.625 2.735 2.738 5.944 4.104 9.626 4.104h48.95c1.888 0 3.48-.62 4.775-1.866 1.292-1.243 1.94-2.81 1.94-4.7 0-1.89-.648-3.483-1.94-4.777-1.294-1.292-2.887-1.94-4.776-1.94h-47.907c-.995 0-1.492-.448-1.492-1.343V72.04h44.324c4.08 0 7.51-.896 10.298-2.687 3.183-1.99 4.775-4.925 4.775-8.805v-8.06zm-13.282 5.52c0 1.194-.846 1.79-2.537 1.79h-44.027v-4.924c0-1.59.746-2.388 2.24-2.388h41.934c1.59 0 2.388.498 2.388 1.49v4.03zm42.98 28.504c-2.09-1.392-3.234-2.238-3.432-2.537-.2-.298-.3-.546-.3-.746V8.78c0-1.89-.647-3.482-1.94-4.776-1.293-1.292-2.886-1.94-4.774-1.94-1.892 0-3.46.648-4.7 1.94-1.247 1.294-1.867 2.887-1.867 4.776v74.305c0 3.782 1.094 6.99 3.283 9.625 2.188 2.635 5.074 3.955 8.656 3.955 4.377 0 6.567-1.842 6.567-5.522 0-2.285-.5-3.826-1.495-4.624z" fill="none" stroke="#364851"/><path d="M19.075 86.515c-2.09-1.392-3.234-2.24-3.432-2.537-.2-.3-.3-.546-.3-.746V8.778c0-1.89-.647-3.482-1.94-4.776-1.293-1.292-2.886-1.94-4.775-1.94-1.89 0-3.458.648-4.7 1.94C2.68 5.296 2.06 6.89 2.06 8.778v74.305c0 3.782 1.094 6.99 3.283 9.625 2.187 2.635 5.074 3.955 8.656 3.955 4.377 0 6.566-1.842 6.566-5.522 0-2.285-.5-3.827-1.492-4.624m22.98-41.04c0-1.89-.647-3.482-1.94-4.776-1.293-1.293-2.886-1.94-4.774-1.94-1.89 0-3.457.647-4.7 1.94-1.246 1.293-1.866 2.886-1.866 4.775v39.548c0 1.89.646 3.458 1.94 4.7 1.292 1.246 2.885 1.866 4.776 1.866 1.89 0 3.456-.62 4.7-1.867 1.244-1.243 1.866-2.81 1.866-4.7v-39.55zm89.69 7.61c0-3.977-1.368-7.26-4.103-9.85-2.737-2.585-6.094-3.88-10.073-3.88h-47.01c-1.79 0-2.686-.596-2.686-1.79V16.373c0-1.888-.62-3.455-1.864-4.7-1.245-1.243-2.812-1.866-4.7-1.866-1.892 0-3.46.623-4.702 1.865-1.245 1.246-1.865 2.813-1.865 4.7v68.352c0 1.79.693 3.358 2.09 4.7 1.39 1.344 2.983 2.016 4.773 2.016h56.86c3.978 0 7.187-1.27 9.626-3.806 2.435-2.537 3.655-5.794 3.655-9.775V53.084zm-13.43 23.133c0 1.293-.798 1.94-2.388 1.94H70.26c-1.592 0-2.388-.647-2.388-1.94V52.79h47.906c1.69 0 2.537.796 2.537 2.386V76.22z" fill="#263238" fill-rule="nonzero"/><path d="M19.075 86.515c-2.09-1.392-3.234-2.24-3.432-2.537-.2-.3-.3-.546-.3-.746V8.778c0-1.89-.647-3.482-1.94-4.776-1.293-1.292-2.886-1.94-4.775-1.94-1.89 0-3.458.648-4.7 1.94C2.68 5.296 2.06 6.89 2.06 8.778v74.305c0 3.782 1.094 6.99 3.283 9.625 2.187 2.635 5.074 3.955 8.656 3.955 4.377 0 6.566-1.842 6.566-5.522 0-2.285-.5-3.827-1.492-4.624zm22.98-41.04c0-1.89-.647-3.482-1.94-4.776-1.293-1.294-2.886-1.94-4.774-1.94-1.89 0-3.456.646-4.7 1.94-1.245 1.292-1.865 2.885-1.865 4.774v39.548c0 1.89.646 3.458 1.94 4.7 1.292 1.246 2.885 1.866 4.776 1.866 1.89 0 3.457-.62 4.7-1.866 1.245-1.243 1.867-2.81 1.867-4.7v-39.55zm89.69 7.61c0-3.977-1.368-7.26-4.103-9.85-2.738-2.585-6.095-3.88-10.074-3.88h-47.01c-1.79 0-2.686-.596-2.686-1.79V16.373c0-1.888-.622-3.455-1.865-4.7-1.245-1.243-2.812-1.866-4.7-1.866-1.892 0-3.46.623-4.702 1.865-1.245 1.246-1.865 2.813-1.865 4.7v68.352c0 1.79.694 3.358 2.09 4.7 1.39 1.344 2.984 2.016 4.774 2.016h56.86c3.978 0 7.187-1.27 9.626-3.806 2.436-2.537 3.656-5.794 3.656-9.775V53.084zm-13.43 23.133c0 1.294-.798 1.94-2.388 1.94H70.26c-1.592 0-2.388-.646-2.388-1.94v-23.43h47.906c1.69 0 2.537.797 2.537 2.387v21.043z" fill="none" stroke="#263238"/></svg>