<svg xmlns="http://www.w3.org/2000/svg" viewBox="0 0 423.93 63.01"><defs><style>.a{fill:#fff;}</style></defs><title>tram-challenge-white</title><path class="a" d="M320.53,261.09H313v47.67H302.6l-5.11-5V261.09h-2.38l-5.11-5v-8.5h25.49l5,5.18v8.35Zm-5.9-5.9v-6.77H290.86v6.77h7.49V303h8.71V255.19h7.56Z" transform="translate(-290 -246.62)"/><path class="a" d="M343,308.83l-4.18-4v4H328.45l-5.11-5.11V247.56h12.39c3.1,0,5.69.65,7.56,2.16,6,4.9,9.72,8.86,9.72,16.85s-2.23,11.67-5.76,13.54c3.89,3.17,4.9,7.13,4.9,13v5.62c0,5.62.29,7.34,1,10.15H343Zm-7.27-60.41H324.2V303h8.71V280.39h1.8c1.66,0,2.74,1.51,2.88,9.58,0.07,3.53.07,5.33,0.22,10.15a10.19,10.19,0,0,0,.58,2.88H347c-0.5-2.16-.79-4.25-0.79-9.43v-4.18c0-3.82-.5-10.58-5.11-12.75,5.26-2.16,6-6,6-14.11C347.1,252.52,343.14,248.42,335.72,248.42Zm-1.15,25.13h-1.66V255.19h1.73c2.52,0,4,1.66,4,8.78C338.6,271.32,337.23,273.55,334.57,273.55Z" transform="translate(-290 -246.62)"/><path class="a" d="M385.26,308.83H374.6l-5-5.11-0.22-2.59h-0.43l-0.58,7.7h-9l-5-5.11,7.27-56.17h11l5,5.11Zm-6.12-6-7.2-54.44h-9.58l-7,54.44h7.13l0.72-7.7h6.41l0.72,7.7h8.79Zm-10.37-14.54h-4.9L366.68,261Z" transform="translate(-290 -246.62)"/><path class="a" d="M425,308.76H415l-3.24-3.17-0.5,3.17h-5.9l-3.89-3.67v3.67h-8.71l-5.11-5V247.56h11.88l5,5.18,1.3,10.08,2.52-15.27H420l5,5v56.17ZM419.1,303V248.42h-10l-5.62,35.14-4.68-35.14H388.5V303h7.06V272.33L400.66,303h5.18l4.9-31v31h8.35Z" transform="translate(-290 -246.62)"/><path class="a" d="M458.48,309.63c-5.83,0-7.92-1.73-14-8.14-1.94-2.09-3.1-4.82-3.1-9.07V259.08c0-8.21,4.61-12.46,11.88-12.46a12.32,12.32,0,0,1,7.42,2c6,4.46,9,7.78,9,15.7a55.62,55.62,0,0,1-.65,7.92l-8.21-.5-4-4.18v16.56l7.2-.5,5,5a73.26,73.26,0,0,1,.58,8.06C469.71,305.66,465,309.63,458.48,309.63Zm4.9-25.13-6.48.5a46.64,46.64,0,0,1,.43,5.54c0,5.18-1.08,6.77-3.1,6.77-2.52,0-3.24-1.51-3.24-4.1V257.92c0-3,.86-4,3-4s3.38,1.15,3.38,6.34a41.28,41.28,0,0,1-.43,5.54l6.41,0.5a57.73,57.73,0,0,0,.5-7.13c0-9.65-4.39-11.74-10.51-11.74-6.77,0-11,3.82-11,11.59v33.34c0,7.85,4.25,11.31,11.16,11.31,6,0,10.44-2.16,10.44-12A51,51,0,0,0,463.38,284.49Z" transform="translate(-290 -246.62)"/><path class="a" d="M503.12,308.76H492.89l-4.75-4.68v4.68h-10.3l-5.11-5V247.56H483.1l4.61,5v-5h10.37l5,5.18v56Zm-5.9-5.91V248.42h-8.64v23.19h-6.34V248.42H473.6v54.44h8.64V278.52h6.34v24.34h8.64Z" transform="translate(-290 -246.62)"/><path class="a" d="M536.38,308.83H525.73l-5-5.11-0.21-2.59H520l-0.58,7.7h-9l-5-5.11,7.27-56.17h11l5,5.11Zm-6.12-6-7.2-54.44h-9.58l-7,54.44h7.13l0.72-7.7h6.41l0.72,7.7h8.79Zm-10.37-14.54H515L517.81,261Z" transform="translate(-290 -246.62)"/><path class="a" d="M564.17,308.76H543.8l-5-5V247.56H549.2l5,5.18v42.41h4.82l5.11,5.18v8.42Zm-6-5.91V296h-9.87v-47.6h-8.71v54.44H558.2Z" transform="translate(-290 -246.62)"/><path class="a" d="M592.61,308.76H572.24l-5-5V247.56h10.44l5,5.18v42.41h4.82l5.11,5.18v8.42Zm-6-5.91V296h-9.87v-47.6h-8.71v54.44h18.58Z" transform="translate(-290 -246.62)"/><path class="a" d="M621.05,308.76H600.6l-5-5V247.56h20.23l5,5.11v8.42h-9.79v9.43h3.1l5,5.18v8.5h-8.14v11h4.82l5.11,5.11v8.42Zm-6-5.91v-6.77h-9.87V278.3h8.14v-6.91h-8.14v-16.2H615v-6.77H596.5v54.44h18.58Z" transform="translate(-290 -246.62)"/><path class="a" d="M651.94,308.76h-7.78l-5.11-5-1.3-5.4v10.44H629l-5.11-5V247.56h8.86l4.39,5.11,0.94,2.23v-7.34h8.79l5,5.18v56ZM646,303V248.42H639v27.65l-6.91-27.65h-7.27V303h7.06V271.46L639.77,303H646Z" transform="translate(-290 -246.62)"/><path class="a" d="M685.06,308.83h-4l-1.8-2c-1.3,1.3-5,2.81-8.14,2.81-4.75,0-7.13-1.8-13-8.21-1.73-1.87-2.66-4.75-2.66-8.35v-33.7c0-8.42,4.75-12.75,12.17-12.75a12.76,12.76,0,0,1,5.69,1c7.2,3.46,10.44,9,10.44,16.92a60.89,60.89,0,0,1-.58,7.42l-8.21-.5-4-4.18v9.07h9.07l5.11,5.18v27.29Zm-6-6V277.22H670.8v16.56c0,2.16-.86,3.6-2.74,3.6-2.16,0-3.1-1.37-3.1-3.6V258.07c0-2.59.65-4.1,3.17-4.1,2,0,3.17,1.22,3.17,6.48a35.94,35.94,0,0,1-.36,5.11l6.41,0.5a48.94,48.94,0,0,0,.43-6.62c0-9.58-3.89-12-10.22-12-6.91,0-11.3,3.89-11.3,11.88v33.7c0,7.2,4,10.66,10.22,10.66,4.68,0,7.13-1,9.07-3.53l1.58,2.66h1.94Z" transform="translate(-290 -246.62)"/><path class="a" d="M713.93,308.76H693.48l-5-5V247.56h20.23l5,5.11v8.42H704v9.43h3.1l5,5.18v8.5H704v11h4.83l5.11,5.11v8.42Zm-6-5.91v-6.77h-9.87V278.3h8.14v-6.91h-8.14v-16.2h9.79v-6.77H689.38v54.44H708Z" transform="translate(-290 -246.62)"/></svg>